<svg width="25" height="25" viewBox="0 0 241 241" fill="none" xmlns="http://www.w3.org/2000/svg">
<path d="M125.501 56.3428C126.049 65.2731 126.615 74.6355 128.654 83.8769C131.692 97.6584 140.373 105.84 153.749 109.158C161.2 111.008 168.836 112.125 176.39 113.566C177.337 113.744 178.296 113.825 179.243 114.009C181.721 114.493 182.64 115.346 182.94 117.38C183.211 119.206 182.224 121.384 180.404 122.145C179.024 122.721 177.459 122.951 175.951 123.101C169.927 123.706 163.857 123.965 157.873 124.835C151.422 125.774 145.432 128.067 140.419 132.504C137.474 135.108 135.342 138.248 133.65 141.728C130.329 148.549 128.625 155.843 127.863 163.316C126.933 172.379 126.332 181.476 125.622 190.562C125.368 193.835 124.322 194.947 121.238 194.998C118.333 195.05 117.01 193.829 116.872 190.896C116.646 186.201 116.623 181.488 116.207 176.809C115.405 167.735 114.509 158.667 111.61 149.926C109.202 142.673 105.701 136.185 99.4868 131.432C94.8778 127.912 89.6508 125.671 83.9675 124.876C77.7875 124.011 71.5324 123.723 65.3178 123.107C63.5331 122.928 61.6676 122.738 60.033 122.081C57.896 121.217 57.1625 119.373 57.4455 117.149C57.7228 114.937 59.2071 114.159 61.1709 113.796C68.5522 112.454 75.9624 111.25 83.286 109.665C89.9049 108.231 96.1138 105.707 101.647 101.628C107.22 97.5258 110.975 92.0697 112.858 85.6169C114.538 79.8554 115.589 73.852 116.323 67.8831C116.987 62.4788 116.849 56.9708 117.068 51.509C117.091 50.9328 117.097 50.3567 117.178 49.7863C117.507 47.4759 119.026 46.0471 121.175 46.001C123.381 45.9549 125.264 47.5105 125.466 49.8324C125.639 51.8316 125.501 53.8596 125.501 56.3371V56.3428Z" fill="#F7831B"/>
<path d="M90.4536 163.01C76.5836 161.376 62.6672 160.055 48.8551 158.023C37.0285 156.286 25.3119 153.7 14.3768 148.62C11.1003 147.096 7.92226 145.099 5.18994 142.75C0.854101 139.016 1.02198 134.513 5.18415 130.542C9.91362 126.029 15.7835 123.529 21.9254 121.792C29.1441 119.749 36.4844 118.115 43.7899 116.378C46.5743 115.714 48.693 117.059 49.2661 119.622C49.8334 122.156 48.2067 124.661 45.5439 125.249C42.8173 125.85 40.0329 126.225 37.3527 126.969C33.4684 128.055 29.6246 129.324 25.8213 130.669C24.7793 131.039 23.8184 131.847 23.0253 132.649C21.5839 134.098 21.5029 135.27 23.0832 136.591C24.6809 137.925 26.516 139.079 28.4263 139.904C36.6349 143.46 45.3934 145.186 54.1577 146.375C67.8019 148.222 81.5273 149.463 95.2294 150.889C99.27 151.31 101.927 153.809 101.852 157.446C101.788 160.499 99.6347 162.739 96.5724 162.768C94.5521 162.785 92.526 162.606 90.5057 162.519C90.4826 162.687 90.4652 162.848 90.4421 163.016L90.4536 163.01Z" fill="#F7831B"/>
<path d="M145.043 163.016C141.157 162.766 138.755 160.915 138.531 157.647C138.312 154.437 140.967 151.291 144.41 150.884C147.358 150.536 150.329 150.362 153.294 150.141C166.785 149.149 180.247 147.831 193.519 145.15C199.427 143.96 205.248 142.294 211.041 140.605C213.119 140.001 215.112 138.869 216.931 137.65C219.643 135.834 219.689 133.454 217.064 131.596C215.52 130.505 213.753 129.576 211.951 129.048C207.54 127.754 203.049 126.726 198.581 125.606C197.279 125.281 195.943 125.06 194.659 124.677C192.264 123.963 191.055 121.961 191.504 119.587C191.942 117.254 193.905 115.773 196.421 116.325C203.072 117.782 209.774 119.099 216.275 121.096C221.561 122.716 226.622 125.124 231.677 127.411C233.382 128.183 234.925 129.495 236.278 130.836C240.28 134.8 240.061 139.107 235.881 142.874C231.781 146.572 226.835 148.65 221.756 150.461C209.492 154.837 196.778 157.351 183.927 158.993C171.006 160.642 158.004 161.698 145.043 163.016Z" fill="#F7831B"/>
</svg>
