<svg xmlns="http://www.w3.org/2000/svg" width="25" height="25" viewBox="0 0 80 80" fill="none"><script xmlns=""/>
<path d="M54.7662 5.06763L42.1848 5L49.0827 45.0859C49.6561 48.4334 51.9666 51.2061 55.1373 52.3727L73.0312 58.9325L79.3557 48.0276L62.3724 41.7552C61.5798 41.4678 61.0064 40.7747 60.8546 39.9293L54.7662 5.06763Z" fill="#5BFEC8"/>
<path d="M40.5945 23.8506L37.2552 5.05035H24.6738L27.8107 22.9208C27.9625 23.7492 27.642 24.5945 27.0012 25.1525L0 47.9427L6.25698 58.8814L37.3564 32.7605C39.9536 30.5795 41.1848 27.1813 40.5945 23.8506Z" fill="#5BFEC8"/>
<path d="M32.1114 49.4672C28.9407 48.3006 25.3822 48.9262 22.7849 51.1071L8.17969 63.3814L14.4367 74.3201L28.3336 62.6882C28.9745 62.1472 29.8683 61.9951 30.661 62.2825L63.8348 74.4046L70.1761 63.5167L32.0945 49.501L32.1114 49.4672Z" fill="#5BFEC8"/>
<script xmlns="" id="puzzle-extension" data-extension-id="fdchdcpieegfofnofhgdombfckhbcokj"/></svg>